<?xml version="1.0" encoding="utf-8"?>
<!-- Generator: Adobe Illustrator 25.3.1, SVG Export Plug-In . SVG Version: 6.00 Build 0)  -->
<svg version="1.1" id="Layer_1" xmlns="http://www.w3.org/2000/svg" xmlns:xlink="http://www.w3.org/1999/xlink" x="0px" y="0px"
	 viewBox="0 0 197 57.3" style="enable-background:new 0 0 197 57.3;" xml:space="preserve">
<style type="text/css">
	.st0{fill:none;stroke:#FFFFFF;stroke-miterlimit:10;}
</style>
<g>
	<path class="st0" d="M51.9,39.2c0-2-0.9-3.4-2.2-4.6c-1.4-1.2-3.3-2.1-5.5-2.9c-3.6-1.4-7.8-2.6-11.1-4.8L33,26.8
		c-0.5,0.6-1,1.1-1.6,1.6c-3.1,2.7-7.2,4.4-11.4,5.3l-9.9,2.4l0,2.7c0,2.4,0.6,4.4,2,5.7c1.3,1.3,3.4,2,6.2,2h0.3
		c2.4,0,4-0.8,5.3-1.8c1.3-1,2.2-2.1,3.4-2.9c0.7-0.5,1.6-0.9,2.6-0.9c0.1,0,0.1,0,0.2,0c0.8,0,2.2,0.1,2.9,0.4v0
		c0.8,0.3,1.5,1,2.3,1.8c1.8,2.2,4.7,3,7.3,3h0.2C48.9,46.1,51.9,42.5,51.9,39.2L51.9,39.2L51.9,39.2L51.9,39.2z M50.9,39.3
		c-0.1,2.6-2.4,5.7-8,5.9c-0.1,0-0.2,0-0.2,0c-2.4,0-4.9-0.8-6.5-2.7c-0.6-0.7-1.3-1.4-2.1-1.8l0,0c-0.2-0.1-0.4-0.2-0.6-0.3
		c0,0,0,0,0,0c-1-0.4-2.3-0.4-3.2-0.4c-0.1,0-0.2,0-0.2,0c-1.3,0-2.4,0.5-3.2,1.1c-1.3,0.9-2.2,2.1-3.4,2.9
		c-1.2,0.9-2.4,1.5-4.6,1.5h-0.3c-2.7,0-4.4-0.7-5.5-1.7c-1.1-1.1-1.7-2.7-1.7-5l0-1.8l9.1-2.2c4.3-1,8.6-2.7,11.9-5.6
		c0.3-0.3,0.7-0.6,1-1c3.4,2.1,7.3,3.2,10.6,4.5c2.1,0.8,4,1.7,5.2,2.7C50.2,36.5,50.8,37.5,50.9,39.3
		C50.8,39.3,50.9,39.3,50.9,39.3 M25.5,22c0.1-0.1,0.2-0.2,0.3-0.3L25,20.9c-0.1,0.1-0.2,0.2-0.2,0.2c-1.2,1.2-3.1,2.3-5.9,2.9
		L11.2,26l0-7.4l0-0.1c0.1-3.8,2.9-6.7,7.7-6.9c0.1,0,0.2,0,0.3,0c2.5,0,4.3,0.6,5.5,1.6c1.2,1,1.9,2.4,1.9,4.2c0,0,0,0.1,0,0.1
		c0,1.2-0.5,2.3-1.5,3.4l0.8,0.7c1.2-1.3,1.8-2.7,1.8-4.2l0-0.1c0-2.1-0.8-3.8-2.3-5.1c-1.4-1.2-3.5-1.9-6.2-1.9c-0.1,0-0.2,0-0.3,0
		c-5.2,0.1-8.7,3.6-8.7,8c0,0,0,0.1,0,0.1l0,8.8l9-2.2C22,24.5,24.1,23.3,25.5,22 M88.6,38.3l-0.1-20.2c0-5.2-1.8-9.7-5-12.8
		c-3.2-3.1-7.7-4.8-13.1-4.8c-0.2,0-0.3,0-0.5,0c-4.7,0.1-9.4,1.8-13,4.9C53.3,2,48.2,0,43.5,0c-0.1,0-0.2,0-0.3,0
		c-4,0.1-8.2,1.4-11.5,4c-0.1,0.1-0.2,0.2-0.4,0.3C28,1.8,23.6,0.5,19.2,0.5v0l-0.5,0c0,0,0,0,0,0l-0.5,0v0C13.4,0.7,9,2.5,5.6,5.6
		C2.3,8.8,0.1,13.2,0,18.4c0,0.1,0,0.3,0,0.4L0.1,39c0,5.2,1.8,9.6,5,12.8c3.2,3.1,7.7,4.8,13.1,4.8h0.5c4.3-0.1,8.5-1.5,12-4.1
		c3.4,2.3,7.9,3.5,11.6,3.6v0l0.5,0h0.1c4.8-0.1,9.4-1.7,13-4.5c0.4,0.4,0.7,0.7,1.1,1c3.4,2.7,7.9,4,12.4,4v0l0.6,0l0.5,0v0
		c4.7-0.2,9.2-2,12.5-5.1c3.4-3.1,5.6-7.6,5.6-12.8L88.6,38.3z M82.2,50.7c-3.2,3-7.6,4.8-12.3,4.9h-0.4c-4.3,0-8.6-1.3-11.8-3.8
		c-0.6-0.5-1.2-1-1.7-1.7l-0.7,0.6c-3.4,2.7-7.8,4.2-12.4,4.3h-0.2c-3.8,0-8.6-1.4-11.9-3.9l0,0c-3.3,2.7-7.6,4.2-11.9,4.3
		c-0.2,0-0.3,0-0.5,0c-5.2,0-9.4-1.7-12.4-4.5c-3-2.9-4.7-7.1-4.7-12L1.1,18.8c0-0.1,0-0.2,0-0.4c0.1-4.9,2.1-9.1,5.3-12
		c3.2-3,7.6-4.8,12.3-4.9c0.1,0,0.3,0,0.4,0c4.3,0,8.6,1.2,11.8,3.8c3,2.3,5,5.7,5.5,10.1v0l0,0.1c0,1.6,0.9,2.8,2.2,3.9
		c1.4,1,3.3,1.8,5.5,2.7c4.3,1.6,9.5,3.3,13,6.9c2.3,2.4,3.9,5.5,3.9,10.1l0,0h0c0,0.2,0,0.4,0,0.6c0,0,0,0.1,0,0.1
		c0,2,0.8,3.8,2.3,5c1.4,1.2,3.5,1.9,6.2,1.9h0.3c5.2-0.1,8.7-3.6,8.8-8c0-0.1,0-0.1,0-0.1l-0.5,0l0.5,0l0-8.8l-9,2.2
		c-2.9,0.7-5,1.8-6.4,3.2c-0.5,0.4-0.8,0.9-1.1,1.4c-0.5-3.6-2-6.3-4-8.4c0,0,0,0,0,0c3-2.3,6.8-3.9,10.6-4.7l10-2.4l0-2.7
		c0-2.4-0.6-4.4-2-5.7c-1.3-1.3-3.4-2-6.2-2c-0.1,0-0.2,0-0.3,0c-2.4,0-4,0.8-5.2,1.8c-1.3,1-2.2,2.1-3.4,2.9
		c-0.8,0.6-1.8,1.2-2.7,1.2c-0.5,0-0.9,0.1-1.5,0.1c-0.3,0-0.7,0-1.1-0.1c-0.5-0.1-1.2-0.3-1.8-0.5c0,0-0.1,0-0.1,0
		c-0.3-0.1-0.6-0.3-0.8-0.4c-0.9-0.5-1.9-1.3-2.5-2c-1.7-2.3-4.1-3.7-7.2-3.6c-0.1,0-0.1,0-0.2,0c-2.3,0-4.1,0.8-5.2,1.8
		c-0.5,0.4-0.8,0.9-1.1,1.4c-0.8-3.3-2.5-6-4.9-8c0.1-0.1,0.1-0.1,0.2-0.2c3-2.4,7-3.7,10.8-3.7c0.1,0,0.2,0,0.3,0
		c4.7,0,10,2.1,13.3,5.8v0l0,0c3.4-3.4,8.2-5.2,13-5.2c0.2,0,0.3,0,0.5,0c5.2,0,9.4,1.7,12.4,4.5c3,2.9,4.7,7.1,4.7,12l0.1,20.2
		l0,0.4C87.4,43.6,85.4,47.8,82.2,50.7 M52.8,16.5c0.3,0.1,0.6,0.3,0.9,0.4c0.7,0.3,1.5,0.5,2.2,0.6c0.5,0.1,0.9,0.1,1.3,0.1
		c0.7,0,1.1-0.1,1.5-0.1c1.4,0,2.5-0.8,3.3-1.4c1.3-0.9,2.2-2.1,3.4-2.9c1.2-0.9,2.4-1.5,4.6-1.5c0.1,0,0.2,0,0.3,0
		c2.7,0,4.4,0.7,5.5,1.7c1.1,1.1,1.7,2.7,1.7,5l0,1.8l-9.1,2.2c-4,0.9-8,2.5-11.2,5.1c-3.7-3.2-8.6-4.8-12.5-6.3
		c-2.1-0.8-4-1.6-5.2-2.5c-1.2-0.9-1.8-1.8-1.8-3l0-0.1c0-1.1,0.5-2.2,1.4-3c0.9-0.8,2.4-1.5,4.6-1.5c0,0,0.1,0,0.2,0
		c2.7,0,4.8,1.1,6.3,3.2c0.6,0.8,1.5,1.5,2.4,2.1l0,0C52.4,16.3,52.6,16.4,52.8,16.5 M62.1,39.6c0-1.2,0.5-2.5,1.7-3.7
		c1.2-1.2,3.1-2.3,5.8-2.9l7.7-1.9l0,7.4c0,0.1,0,0.1,0,0.1c-0.1,3.8-2.9,6.7-7.7,6.9h-0.3c-2.5,0-4.3-0.6-5.5-1.6
		C62.8,42.9,62.1,41.5,62.1,39.6C62.1,39.6,62.1,39.6,62.1,39.6"/>
	<path class="st0" d="M115.3,50c2-0.7,3.3-2.5,3.3-4.6c0-2.7-2.2-4.9-4.9-4.9h-3.6c-0.3,0-0.5,0.2-0.5,0.5v14.4
		c0,0.3,0.3,0.5,0.5,0.5s0.5-0.2,0.5-0.5v-5.2h3c0.2,0,0.4,0,0.6,0l3.5,5.5c0.1,0.2,0.2,0.2,0.4,0.2c0.3,0,0.5-0.2,0.5-0.5
		c0-0.1,0-0.2-0.1-0.3L115.3,50z M113.8,49.3h-3.1v-7.7h3.1c2.1,0,3.9,1.7,3.9,3.9C117.7,47.5,115.9,49.3,113.8,49.3"/>
	<path class="st0" d="M130.4,40.5c-0.2,0-0.5,0.2-0.5,0.5v10c0,2.2-1.8,4.1-4.1,4.1c-2.2,0-4.1-1.8-4.1-4.1V41
		c0-0.3-0.3-0.5-0.5-0.5c-0.2,0-0.5,0.2-0.5,0.5v10c0,2.8,2.3,5.1,5.1,5.1s5.1-2.3,5.1-5.1V41C130.9,40.7,130.7,40.5,130.4,40.5"/>
	<path class="st0" d="M105.2,47.9c1.2-0.7,2-2,2-3.4c0-2.2-1.8-3.9-4-3.9h-4.2c-0.3,0-0.5,0.2-0.5,0.5v14.4c0,0.3,0.2,0.5,0.5,0.5
		h4.2c2.3,0,4.3-1.9,4.3-4.3C107.5,50.1,106.6,48.7,105.2,47.9 M99.6,41.5h3.7c1.6,0,3,1.3,3,2.9c0,1.6-1.3,3-3,3h-3.7V41.5z
		 M103.2,54.9h-3.7v-6.5h3.7c1.8,0,3.3,1.5,3.3,3.2C106.5,53.5,105,54.9,103.2,54.9"/>
	<path class="st0" d="M152.7,41.5c0.3,0,0.5-0.3,0.5-0.5s-0.2-0.5-0.5-0.5h-7.5c-0.3,0-0.5,0.2-0.5,0.5v14.4c0,0.3,0.2,0.5,0.5,0.5
		h7.5c0.3,0,0.5-0.3,0.5-0.5c0-0.2-0.2-0.5-0.5-0.5h-7v-6.6h6.4c0.3,0,0.5-0.3,0.5-0.5c0-0.2-0.2-0.5-0.5-0.5h-6.4v-5.8L152.7,41.5
		L152.7,41.5z"/>
	<path class="st0" d="M138.3,47.9l3.9-6.7c0-0.1,0.1-0.2,0.1-0.3c0-0.3-0.3-0.5-0.5-0.5c-0.1,0-0.3,0.1-0.4,0.2l-3.6,6.2l-3.6-6.2
		c-0.1-0.2-0.2-0.2-0.4-0.2c-0.2,0-0.5,0.2-0.5,0.5c0,0.1,0,0.2,0.1,0.3l3.9,6.6l-4.2,7.3c0,0.1-0.1,0.2-0.1,0.3
		c0,0.3,0.3,0.5,0.5,0.5c0.2,0,0.3-0.1,0.4-0.2l4-6.8l4,6.8c0.1,0.2,0.3,0.2,0.4,0.2c0.2,0,0.5-0.2,0.5-0.5c0-0.1,0-0.2-0.1-0.3
		L138.3,47.9z"/>
	<path class="st0" d="M184.5,41.5c0.3,0,0.5-0.3,0.5-0.5s-0.2-0.5-0.5-0.5H177c-0.3,0-0.5,0.2-0.5,0.5v14.4c0,0.3,0.2,0.5,0.5,0.5
		h7.5c0.3,0,0.5-0.3,0.5-0.5c0-0.2-0.2-0.5-0.5-0.5h-7v-6.6h6.4c0.3,0,0.5-0.3,0.5-0.5c0-0.2-0.2-0.5-0.5-0.5h-6.4v-5.8L184.5,41.5
		L184.5,41.5z"/>
	<path class="st0" d="M191.5,47.4c-1.9-0.7-3.6-1.4-3.6-3.2c0-1.6,1.4-2.8,3.3-2.8c1.2,0,2.4,0.5,3.2,1.4c0.1,0.2,0.2,0.3,0.2,0.3
		c0.1,0.1,0.2,0.2,0.4,0.2c0.3,0,0.5-0.2,0.5-0.5c0-0.1,0-0.2-0.1-0.3c-0.9-1.2-2.7-2.1-4.3-2.1c-2.8,0-4.3,2-4.3,3.8
		c0,2.6,2.2,3.4,4.2,4.2c2,0.8,3.9,1.5,3.9,3.7c0,1.8-1.6,3.1-4,3.1c-1.2,0-2.4-0.4-3.1-1.2c-0.1-0.1-0.2-0.2-0.2-0.2
		c-0.1-0.1-0.2-0.2-0.4-0.2c-0.3,0-0.5,0.2-0.5,0.5c0,0.1,0,0.2,0.1,0.3c0.9,1.3,2.7,1.8,4.1,1.8c2.9,0,5-1.7,5-4.1
		C196,49.1,193.6,48.2,191.5,47.4"/>
	<path class="st0" d="M174,54.9h-7V41c0-0.3-0.3-0.5-0.5-0.5c-0.2,0-0.5,0.2-0.5,0.5v14.4c0,0.3,0.2,0.5,0.5,0.5h7.5
		c0.3,0,0.5-0.3,0.5-0.5C174.5,55.2,174.3,54.9,174,54.9"/>
	<path class="st0" d="M163.5,54.9h-7V41c0-0.3-0.3-0.5-0.5-0.5c-0.2,0-0.5,0.2-0.5,0.5v14.4c0,0.3,0.2,0.5,0.5,0.5h7.5
		c0.3,0,0.5-0.3,0.5-0.5C164,55.2,163.8,54.9,163.5,54.9"/>
	<path class="st0" d="M111.2,28.5c0-0.2-0.2-0.5-0.5-0.5H98.5c-0.3,0-0.5,0.3-0.5,0.5s0.2,0.5,0.5,0.5h12.2
		C111,29,111.2,28.7,111.2,28.5"/>
	<path class="st0" d="M113.9,20.7c-0.2,0-0.5,0.2-0.5,0.5v14.4c0,0.3,0.2,0.5,0.5,0.5h7.5c0.3,0,0.5-0.3,0.5-0.5
		c0-0.2-0.2-0.5-0.5-0.5h-7V21.2C114.4,20.9,114.2,20.7,113.9,20.7"/>
	<path class="st0" d="M133.1,21.2c0-0.3-0.3-0.5-0.5-0.5c-0.2,0-0.5,0.2-0.5,0.5v10c0,2.2-1.8,4.1-4.1,4.1c-2.2,0-4.1-1.8-4.1-4.1
		v-10c0-0.3-0.3-0.5-0.5-0.5s-0.5,0.2-0.5,0.5v10c0,2.8,2.3,5.1,5.1,5.1s5.1-2.3,5.1-5.1V21.2z"/>
	<path class="st0" d="M144.8,34.5c0.1-0.1,0.1-0.2,0.1-0.3c0-0.3-0.2-0.5-0.5-0.5c-0.1,0-0.3,0.1-0.4,0.2c-0.8,1-2.4,1.5-3.6,1.5
		c-2.2,0-4.1-1.8-4.1-4.1v-5.7c0-2.2,1.8-4.1,4.1-4.1c1.3,0,2.5,0.5,3.4,1.3C144,22.9,144,23,144,23c0.1,0.1,0.2,0.2,0.4,0.2
		c0.2,0,0.5-0.2,0.5-0.5c0-0.1,0-0.2-0.1-0.3c-1-1.2-2.9-1.9-4.4-1.9c-2.8,0-5.1,2.3-5.1,5.1v5.7c0,2.8,2.3,5.1,5.1,5.1
		c1.5,0,3-0.6,4-1.5C144.7,34.6,144.8,34.5,144.8,34.5z"/>
	<path class="st0" d="M109.3,16.3c0.2,0,0.4-0.1,0.5-0.3l1.5-4.6h5.6l1.5,4.6c0.1,0.2,0.2,0.4,0.5,0.4c0.2,0,0.5-0.2,0.5-0.5
		c0-0.1,0-0.2,0-0.2l-4.8-14.4c-0.1-0.3-0.3-0.4-0.5-0.4c-0.2,0-0.4,0.2-0.5,0.4l-4.8,14.4c0,0,0,0.1,0,0.2
		C108.8,16.2,109.1,16.3,109.3,16.3 M114.1,3l2.5,7.4h-4.9L114.1,3z"/>
	<path class="st0" d="M102.4,15.5c-1.2,0-2.4-0.5-3.1-1.2c-0.1-0.1-0.2-0.2-0.2-0.2c-0.1-0.1-0.2-0.2-0.4-0.2
		c-0.3,0-0.5,0.2-0.5,0.5c0,0.1,0,0.2,0.1,0.3c0.9,1.3,2.7,1.8,4.1,1.8c2.9,0,5-1.7,5-4.1c0-2.9-2.4-3.8-4.5-4.6
		c-1.9-0.7-3.6-1.4-3.6-3.2c0-1.6,1.4-2.8,3.3-2.8c1.2,0,2.4,0.5,3.2,1.4c0.1,0.2,0.2,0.3,0.2,0.3c0.1,0.1,0.2,0.2,0.4,0.2
		c0.3,0,0.5-0.2,0.5-0.5c0-0.1,0-0.2-0.1-0.3c-0.9-1.2-2.7-2.1-4.3-2.1c-2.8,0-4.3,2-4.3,3.8c0,2.6,2.2,3.4,4.2,4.2
		c2,0.8,3.9,1.5,3.9,3.7C106.4,14.3,104.7,15.5,102.4,15.5"/>
	<path class="st0" d="M142.6,1.9h4.3v13.9c0,0.3,0.3,0.5,0.5,0.5s0.5-0.2,0.5-0.5V1.9h4.3c0.3,0,0.5-0.3,0.5-0.5s-0.2-0.5-0.5-0.5
		h-9.6c-0.3,0-0.5,0.3-0.5,0.5C142.1,1.7,142.3,1.9,142.6,1.9"/>
	<path class="st0" d="M121.6,15.3c-0.3,0-0.5,0.3-0.5,0.5c0,0.2,0.2,0.5,0.5,0.5h6.4c0.3,0,0.5-0.3,0.5-0.5c0-0.2-0.2-0.5-0.5-0.5
		h-2.7V1.9h2.7c0.3,0,0.5-0.3,0.5-0.5s-0.2-0.5-0.5-0.5h-6.4c-0.3,0-0.5,0.3-0.5,0.5s0.2,0.5,0.5,0.5h2.7v13.4H121.6z"/>
	<path class="st0" d="M131.1,16.3c0.2,0,0.5-0.2,0.5-0.5V3.2l7.8,12.9c0.1,0.2,0.3,0.3,0.5,0.3c0.2,0,0.5-0.2,0.5-0.6V1.4
		c0-0.3-0.3-0.5-0.5-0.5s-0.5,0.2-0.5,0.5V14l-7.8-12.9c-0.1-0.2-0.3-0.3-0.5-0.3c-0.2,0-0.5,0.2-0.5,0.6v14.4
		C130.6,16.2,130.8,16.3,131.1,16.3"/>
</g>
</svg>
